<svg xmlns="http://www.w3.org/2000/svg" width="50" height="50" viewBox="0 0 50 50">
  <!-- Analytics & Data icon - Charts and data visualization -->
  <circle cx="25" cy="25" r="23" fill="none" stroke="#5D859B" stroke-width="1" />
  
  <!-- Dashboard frame -->
  <rect x="10" y="10" width="30" height="30" rx="2" fill="white" stroke="#5D859B" stroke-width="2" />
  
  <!-- Chart grid -->
  <line x1="15" y1="15" x2="15" y2="35" stroke="#5D859B" stroke-width="1" />
  <line x1="15" y1="35" x2="35" y2="35" stroke="#5D859B" stroke-width="1" />
  
  <!-- Data visualization elements -->
  <!-- Bar chart -->
  <rect x="18" y="30" width="3" height="5" fill="#5D859B" />
  <rect x="23" y="25" width="3" height="10" fill="#5D859B" />
  <rect x="28" y="20" width="3" height="15" fill="#5D859B" />
  
  <!-- Line chart -->
  <path d="M15 25 L20 22 L25 28 L30 18 L35 23" stroke="#FFCD3D" stroke-width="2" fill="none" />
  
  <!-- Data points -->
  <circle cx="20" cy="22" r="1.5" fill="#FFCD3D" />
  <circle cx="25" cy="28" r="1.5" fill="#FFCD3D" />
  <circle cx="30" cy="18" r="1.5" fill="#FFCD3D" />
  <circle cx="35" cy="23" r="1.5" fill="#FFCD3D" />
  
  <!-- Pie chart segment -->
  <path d="M18 15 A5 5 0 0 1 23 20 L18 20 Z" fill="#E74C3C" />
  <path d="M18 20 A5 5 0 0 1 13 15 L18 15 Z" fill="#FFCD3D" />
  <circle cx="18" cy="15" r="5" fill="none" stroke="#5D859B" stroke-width="1" />
</svg>