<svg xmlns="http://www.w3.org/2000/svg" width="50" height="50" viewBox="0 0 50 50">
  <!-- SEO & Content Marketing icon - Magnifying glass with rankings and content -->
  <circle cx="25" cy="25" r="23" fill="none" stroke="#5D859B" stroke-width="1" />
  
  <!-- Magnifying glass -->
  <circle cx="20" cy="20" r="10" fill="none" stroke="#5D859B" stroke-width="2" />
  <line x1="27" y1="27" x2="35" y2="35" stroke="#5D859B" stroke-width="3" stroke-linecap="round" />
  
  <!-- Search rankings -->
  <line x1="15" y1="30" x2="15" y2="40" stroke="#5D859B" stroke-width="1" />
  <line x1="15" y1="40" x2="40" y2="40" stroke="#5D859B" stroke-width="1" />
  
  <!-- Ranking bars -->
  <rect x="20" y="35" width="4" height="5" fill="#FFCD3D" />
  <rect x="26" y="32" width="4" height="8" fill="#FFCD3D" />
  <rect x="32" y="30" width="4" height="10" fill="#FFCD3D" />
  
  <!-- Content symbols -->
  <line x1="17" y1="18" x2="23" y2="18" stroke="#E74C3C" stroke-width="1" />
  <line x1="17" y1="20" x2="23" y2="20" stroke="#E74C3C" stroke-width="1" />
  <line x1="17" y1="22" x2="21" y2="22" stroke="#E74C3C" stroke-width="1" />
  
  <!-- Keywords/traffic flow -->
  <path d="M8 15 C10 12, 15 15, 15 15" stroke="#5D859B" stroke-width="1" fill="none" stroke-dasharray="2" />
  <path d="M8 20 C10 17, 15 20, 15 20" stroke="#5D859B" stroke-width="1" fill="none" stroke-dasharray="2" />
  <path d="M8 25 C10 22, 15 25, 15 25" stroke="#5D859B" stroke-width="1" fill="none" stroke-dasharray="2" />
</svg>