<svg xmlns="http://www.w3.org/2000/svg" width="50" height="50" viewBox="0 0 50 50">
  <!-- Strategy icon - Chess piece (knight) with strategic elements -->
  <circle cx="25" cy="25" r="23" fill="none" stroke="#5D859B" stroke-width="1" />
  
  <!-- Chess knight base -->
  <path d="M15 38 L35 38 L35 33 L15 33 Z" fill="#5D859B" />
  
  <!-- Chess knight body -->
  <path d="M18 33 C18 28, 18 15, 22 15 C24 15, 24 18, 30 18 C33 18, 35 16, 35 16 C35 16, 31 20, 33 25 C35 29, 33 33, 33 33 Z" fill="none" stroke="#5D859B" stroke-width="2" />
  
  <!-- Chess knight eye -->
  <circle cx="25" cy="20" r="1" fill="#5D859B" />
  
  <!-- Strategic elements -->
  <circle cx="15" cy="15" r="3" fill="none" stroke="#FFCD3D" stroke-width="1" />
  <circle cx="35" cy="15" r="3" fill="none" stroke="#FFCD3D" stroke-width="1" />
  <line x1="15" y1="15" x2="35" y2="15" stroke="#FFCD3D" stroke-width="1" stroke-dasharray="2" />
  
  <!-- Connection to king (final goal) -->
  <path d="M25 8 L25 13 M22 10 L28 10" stroke="#FFCD3D" stroke-width="1" />
</svg>