<svg xmlns="http://www.w3.org/2000/svg" width="50" height="50" viewBox="0 0 50 50">
  <!-- Innovation icon - Lightbulb with creative elements -->
  <circle cx="25" cy="25" r="23" fill="none" stroke="#5D859B" stroke-width="1" />
  
  <!-- Lightbulb -->
  <path d="M25 5 C17 5, 15 12, 15 17 C15 22, 18 25, 20 28 L20 33 L30 33 L30 28 C32 25, 35 22, 35 17 C35 12, 33 5, 25 5 Z" fill="none" stroke="#5D859B" stroke-width="2" />
  
  <!-- Base of bulb -->
  <rect x="20" y="33" width="10" height="3" fill="#5D859B" />
  <rect x="21" y="36" width="8" height="3" fill="#5D859B" />
  <rect x="22" y="39" width="6" height="2" fill="#5D859B" />
  
  <!-- Rays/Ideas -->
  <line x1="25" y1="1" x2="25" y2="5" stroke="#FFCD3D" stroke-width="2" />
  <line x1="38" y1="8" x2="35" y2="11" stroke="#FFCD3D" stroke-width="2" />
  <line x1="49" y1="25" x2="45" y2="25" stroke="#FFCD3D" stroke-width="2" />
  <line x1="5" y1="25" x2="1" y2="25" stroke="#FFCD3D" stroke-width="2" />
  <line x1="12" y1="8" x2="15" y2="11" stroke="#FFCD3D" stroke-width="2" />
  
  <!-- Spark inside bulb -->
  <path d="M22 18 L28 18 L24 23 L29 23 L21 30 L23 24 L18 24 Z" fill="#FFCD3D" />
</svg>